<?xml version="1.0" encoding="UTF-8" standalone="no"?>
<!-- Created with Inkscape (http://www.inkscape.org/) -->

<svg
   xmlns:dc="http://purl.org/dc/elements/1.1/"
   xmlns:cc="http://creativecommons.org/ns#"
   xmlns:rdf="http://www.w3.org/1999/02/22-rdf-syntax-ns#"
   xmlns:svg="http://www.w3.org/2000/svg"
   xmlns="http://www.w3.org/2000/svg"
   xmlns:sodipodi="http://sodipodi.sourceforge.net/DTD/sodipodi-0.dtd"
   xmlns:inkscape="http://www.inkscape.org/namespaces/inkscape"
   width="129.26158mm"
   height="129.26158mm"
   viewBox="0 0 129.26158 129.26158"
   version="1.1"
   id="svg9078"
   inkscape:version="0.92.2 (5c3e80d, 2017-08-06)"
   sodipodi:docname="HTLogo.svg">
  <defs
     id="defs9072" />
  <sodipodi:namedview
     id="base"
     pagecolor="#ffffff"
     bordercolor="#666666"
     borderopacity="1.0"
     inkscape:pageopacity="0.0"
     inkscape:pageshadow="2"
     inkscape:zoom="0.7"
     inkscape:cx="238.54703"
     inkscape:cy="235.18354"
     inkscape:document-units="mm"
     inkscape:current-layer="layer1"
     showgrid="false"
     fit-margin-top="0"
     fit-margin-left="0"
     fit-margin-right="0"
     fit-margin-bottom="0"
     inkscape:window-width="1680"
     inkscape:window-height="995"
     inkscape:window-x="1920"
     inkscape:window-y="27"
     inkscape:window-maximized="1" />
  <metadata
     id="metadata9075">
    <rdf:RDF>
      <cc:Work
         rdf:about="">
        <dc:format>image/svg+xml</dc:format>
        <dc:type
           rdf:resource="http://purl.org/dc/dcmitype/StillImage" />
        <dc:title></dc:title>
      </cc:Work>
    </rdf:RDF>
  </metadata>
  <g
     inkscape:label="Layer 1"
     inkscape:groupmode="layer"
     id="layer1"
     transform="translate(-42.076772,-81.178702)">
    <g
       inkscape:export-ydpi="1000"
       inkscape:export-xdpi="1000"
       transform="matrix(1.0426323,0,0,1.0426323,-91.681857,-424.68163)"
       id="g5827">
      <rect
         transform="rotate(45)"
         y="208.52487"
         x="477.61783"
         height="87.664406"
         width="87.664406"
         id="rect5817"
         style="opacity:1;fill:#ffae00;fill-opacity:1;stroke:none;stroke-width:0.01;stroke-linecap:round;stroke-linejoin:round;stroke-miterlimit:4;stroke-dasharray:none;stroke-dashoffset:0;stroke-opacity:1" />
      <g
         id="g5825"
         transform="translate(0,3.2127976)">
        <path
           inkscape:connector-curvature="0"
           id="path5819"
           d="m 205.28354,514.36671 c -0.008,0 -0.0166,2.5e-4 -0.0248,2.5e-4 h -30.87698 v 0.0263 c -8.13327,0.37429 -14.98249,5.85018 -14.98249,13.07925 0,7.34852 7.07737,12.88495 15.38661,13.09309 a 15.895506,15.895506 0 0 0 9.87144,11.36229 v 16.79402 h -6.7578 c -3.11342,0 -5.61982,2.50654 -5.61982,5.61997 0,3.11343 2.5064,5.61995 5.61982,5.61995 h 24.75537 c 3.11343,0 5.61996,-2.50652 5.61996,-5.61995 0,-3.11343 -2.50653,-5.61997 -5.61996,-5.61997 h -6.75779 v -16.80695 a 15.895506,15.895506 0 0 0 9.86639,-11.35401 c 8.31145,-0.20605 15.39217,-5.74374 15.39217,-13.09375 0,-7.22903 -6.84963,-12.7049 -14.98288,-13.07925 v -0.021 h -0.86437 c -0.008,0 -0.0166,-2.5e-4 -0.0248,-2.5e-4 z m 0.88921,4.15873 c 6.27865,0.35637 10.84964,4.45473 10.84964,8.94174 0,4.48701 -4.57099,8.58525 -10.84964,8.94161 z m -31.79102,0.006 v 17.88334 c -6.27871,-0.3563 -10.84976,-4.45469 -10.84976,-8.94173 0,-4.48705 4.57105,-8.5853 10.84976,-8.94161 z"
           style="opacity:1;fill:#ffffff;fill-opacity:1;stroke:none;stroke-width:0.00468297;stroke-linecap:round;stroke-linejoin:round;stroke-miterlimit:4;stroke-dasharray:none;stroke-dashoffset:0;stroke-opacity:1" />
        <text
           id="text5823"
           y="537.96942"
           x="177.40129"
           style="font-style:normal;font-variant:normal;font-weight:normal;font-stretch:normal;font-size:18.68588638px;line-height:125%;font-family:Track;-inkscape-font-specification:Track;letter-spacing:0px;word-spacing:0px;fill:#ffae00;fill-opacity:1;stroke:none;stroke-width:0.4671472px;stroke-linecap:butt;stroke-linejoin:miter;stroke-opacity:1"
           xml:space="preserve"><tspan
             style="fill:#ffae00;fill-opacity:1;stroke-width:0.4671472px"
             y="537.96942"
             x="177.40129"
             id="tspan5821"
             sodipodi:role="line">HT</tspan></text>
      </g>
    </g>
  </g>
</svg>
